# xmcd
#
# Track frame offsets: 
#        150
#        19935
#        35150
#        56392
#        75455
#        111082
#        132110
#        146662
#        169372
#        188687
#
# Disc length: 2951 seconds
#
# Revision: 10
# Processed by: cddbd v1.5.2PL0 Copyright (c) Steve Scherf et al.
# Submitted via: ExactAudioCopy v0.99pb5
#
DISCID=840b850a
DTITLE=The Doors - L.A. Woman
DYEAR=1971
DGENRE=
TTITLE0=The Changeling
TTITLE1=Love Her Madly
TTITLE2=Been Down So Long
TTITLE3=Cars Hiss By My Window
TTITLE4=L.A. Woman
TTITLE5=L'America
TTITLE6=Hyacinth House
TTITLE7=Crawling King Snake
TTITLE8=The Wasp (Texas Radio and the Big Beat)
TTITLE9=Riders On The Storm
EXTD=
EXTT0=
EXTT1=
EXTT2=
EXTT3=
EXTT4=
EXTT5=
EXTT6=
EXTT7=
EXTT8=
EXTT9=
PLAYORDER=
